<svg width="20" height="26" viewBox="0 0 20 26" fill="none" xmlns="http://www.w3.org/2000/svg">
<path d="M18.0263 8.19006H18.9474V7.32422H18.0263V8.19006Z" fill="#FAC23E"/>
<path d="M16.9737 6.21143V7.32458H18.0261V6.21143H16.9737Z" fill="#FAC23E"/>
<path d="M18.9474 1.63525H18.0263V2.5011H18.9474V1.63525Z" fill="#FAC23E"/>
<path d="M18.0261 2.5011H16.9737V3.49048H18.0261V2.5011Z" fill="#FAC23E"/>
<path d="M19.0131 4.3562H18.0262V5.46924H19.0131H20V4.3562H19.0131Z" fill="#FAC23E"/>
<path d="M14.9997 8.17327V9.17944H16.0525V8.17327V7.32422H14.9997V8.17327Z" fill="#FAC23E"/>
<path d="M14.9997 1.60839V2.50098H16.0525V1.60839V0.645752H14.9997V1.60839Z" fill="#FAC23E"/>
<path d="M14.9997 4.35571V5.46899H16.0525V4.35571H14.9997Z" fill="black"/>
<path d="M14.0789 6.21155H14.9999V5.46899H14.0789V6.21155Z" fill="black"/>
<path d="M13.0264 7.32422H14.079V6.21155H13.0264V7.32422Z" fill="black"/>
<path d="M11.9778 5.46924H11.0089H9.99973V6.21155H11.0089H11.9778H13.0263V5.46924H11.9778Z" fill="black"/>
<path d="M8.94714 7.26325V8.19055H9.9998V7.26325V6.21143H8.94714V7.26325Z" fill="black"/>
<path d="M8.02594 9.17957H8.94719V8.19006H8.02594V9.17957Z" fill="black"/>
<path d="M8.94716 16.6074V15.6108H9.99995V14.745H10.9578H11.9738V15.6108H12.8949V16.6074V17.4661H11.9738V18.4557H10.9578H9.99995V17.4661H8.94716V16.6074ZM6.97332 10.0902V10.9111H4.99998V12.8897H3.02613V13.7555H1.97335V14.745H1.05229V16.6004H0V21.3H1.05229V23.1553H1.97335V24.1447H3.02613V25.0106H4.99998V26H9.99995V25.0106H11.9738V24.1447H13.0266V23.1553H14.0789V21.3H14.9999V16.6004H14.0789V14.745H13.0266V13.7555H11.9738V12.8897H9.99995V10.9111H8.0261V10.0902V9.17957H6.97332V10.0902Z" fill="black"/>
</svg>
