<svg width="92" height="54" viewBox="0 0 92 54" fill="none" xmlns="http://www.w3.org/2000/svg">
<path d="M60.9036 40.0017L60.9151 35.4722L67.4177 34.5537L64.0776 32.7339V31.4824L60.9265 29.7659L60.9323 25.2307L64.089 24.7887L64.0948 21.373L77.6271 19.467L87.6531 24.9322L87.6474 29.4674L81.139 30.3802L84.4849 32.2057V33.4515L87.6359 35.1737L87.6245 39.7031L84.4677 40.1509L84.462 43.5609L70.9297 45.4668L60.9036 40.0017Z" fill="#000022"/>
<path d="M74.3042 34.3585L83.7057 39.485L83.7115 36.0692L74.3099 30.9428L74.3042 34.3585Z" fill="#000022"/>
<path d="M61.6714 39.5481L71.0729 44.6746L71.0786 41.2646L61.6771 36.1381L61.6714 39.5481Z" fill="#000022"/>
<path d="M61.6771 36.1381L71.0786 41.2646L83.7057 39.485L74.3041 34.3585L61.6771 36.1381Z" fill="#2F4235"/>
<path d="M83.7172 32.6592L74.3156 27.5328L69.8297 28.1642L64.851 25.4489L61.6942 25.8966L66.6729 28.6063L64.8453 28.8646L74.2526 33.9911L78.7385 33.3596L83.7114 36.0692L86.8682 35.6272L81.8953 32.9176L83.7172 32.6592Z" fill="#2F4235"/>
<path d="M64.8568 22.0389L74.264 27.1654L86.8911 25.3857L77.4838 20.2592L64.8568 22.0389Z" fill="#2F4235"/>
<path d="M86.8625 39.0372L86.8682 35.6272L83.7114 36.0693L83.7057 39.485L86.8625 39.0372Z" fill="#8BE368"/>
<path d="M71.0729 44.6746L83.7 42.9007L83.7057 39.485L71.0786 41.2646L71.0729 44.6746Z" fill="#8BE368"/>
<path d="M83.7114 36.0692L83.7172 32.6592L74.2526 33.9911L74.2469 37.4068L83.7114 36.0692Z" fill="#8BE368"/>
<path d="M74.2583 30.5754L86.8854 28.8015L86.8911 25.3857L74.2641 27.1654L74.2583 30.5754Z" fill="#8BE368"/>
<path d="M64.851 25.4489L74.2583 30.5754L74.2641 27.1654L64.8568 22.0389L64.851 25.4489Z" fill="#000022"/>
<path d="M71.1016 31.0231L61.6943 25.8967L61.6885 29.3066L64.8396 31.0289V32.2804L74.2469 37.4068L74.2526 33.9911L71.1016 32.2746V31.0231Z" fill="#000022"/>
<path d="M71.0958 34.4389L74.2526 33.9911L74.2583 30.5754L71.1016 31.0231L71.0958 34.4389Z" fill="#8BE368"/>
<path d="M40.4047 42.918L40.4391 24.7256L44.501 24.1572L49.9037 27.0965V26.8094L53.0604 26.3617L53.0662 22.9517L57.1281 22.3776L67.1542 27.8428L67.1198 46.0294L63.0578 46.6035L54.5042 41.9306L54.4927 47.8091L50.4307 48.3832L40.4047 42.918Z" fill="#000022"/>
<path d="M63.2011 45.8113L63.2183 35.5698L60.0672 33.8533L60.0729 32.6018L50.6657 27.4754L50.6599 30.8854L53.811 32.6076V34.7661L50.6026 33.0209L50.6084 30.518L41.2011 25.3915L41.1724 42.4644L50.574 47.5909L50.5969 36.4367L53.5589 38.0383L53.5532 40.5356L63.2011 45.8113Z" fill="#000022"/>
<path d="M63.2355 28.7383L53.8282 23.6176L53.8224 27.0276L63.2297 32.1541L63.2355 28.7383Z" fill="#000022"/>
<path d="M66.3922 28.2963L56.9849 23.1698L53.8281 23.6176L63.2354 28.7383L66.3922 28.2963Z" fill="#2F4235"/>
<path d="M50.6656 27.4754L60.0729 32.6018L63.2297 32.1541L53.8224 27.0276L50.6656 27.4754Z" fill="#2F4235"/>
<path d="M63.2297 32.1541L60.073 32.6019L60.0672 36.0119L63.2183 35.5698L63.2011 45.8113L66.3578 45.3635L66.3922 28.2963L63.2354 28.7383L63.2297 32.1541Z" fill="#8BE368"/>
<path d="M56.9047 39.8696L60.0558 39.4276L60.0672 36.0119L56.9105 36.4596L56.9047 39.8696Z" fill="#8BE368"/>
<path d="M55.0886 33.3022L56.9162 33.0439L51.9375 30.3343L53.7651 30.0759L44.3579 24.9494L41.2011 25.3915L50.6084 30.518L51.5594 32.9693L56.9105 36.4596L60.0672 36.0119L55.0886 33.3022Z" fill="#2F4235"/>
<path d="M53.7594 33.4859L53.7651 30.0759L50.6084 30.518L50.574 47.5909L53.7307 47.1432L53.7537 36.9017L56.9104 36.4596L56.9162 33.0439L53.7594 33.4859Z" fill="#8BE368"/>
<path d="M23.9047 45.2487V43.9972L20.7536 42.275L20.7708 30.9198L23.9276 30.472L23.939 27.0563L34.3146 25.5981L44.3349 31.0633V32.3148L47.4859 34.0313L47.4687 45.3922L44.312 45.8343L44.3062 49.25L33.9307 50.7139L23.9047 45.2487Z" fill="#000022"/>
<path d="M34.0568 39.9844L43.55 45.1683L43.5672 34.9326L34.0797 29.7487L34.0568 39.9844Z" fill="#000022"/>
<path d="M24.6953 31.138L34.0969 36.2644L34.1026 32.8487L24.701 27.7222L24.6953 31.138Z" fill="#000022"/>
<path d="M41.7453 31.7752L43.5729 31.5168L34.1656 26.3904L24.701 27.7222L34.1026 32.8487L38.5943 32.2172L43.5672 34.9326L46.724 34.4848L41.7453 31.7752Z" fill="#2F4235"/>
<path d="M24.6724 41.3794L34.0797 46.5059L43.55 45.1683L34.0568 39.9844L24.6724 41.3794Z" fill="#2F4235"/>
<path d="M34.0969 36.2644L24.6953 31.138L21.5328 31.58L30.9401 36.7065L34.0969 36.2644Z" fill="#2F4235"/>
<path d="M43.55 45.1683L46.701 44.7263L46.7239 34.4848L43.5672 34.9326L43.55 45.1683Z" fill="#8BE368"/>
<path d="M34.0739 49.9159L43.5385 48.5841L43.55 45.1683L34.0797 46.5059L34.0739 49.9159Z" fill="#8BE368"/>
<path d="M43.5729 31.5168L34.1026 32.8487L34.0969 36.2644L43.5672 34.9326L43.5729 31.5168Z" fill="#8BE368"/>
<path d="M30.9401 36.7065L21.5328 31.58L21.5156 41.8215L24.6667 43.5437V44.7952L34.0739 49.9159L34.0797 46.5059L30.9286 44.7837L30.9401 36.7065Z" fill="#000022"/>
<path d="M30.9401 36.7065L30.9229 46.948L34.0797 46.5059L34.0969 36.2644L30.9401 36.7065Z" fill="#8BE368"/>
<path d="M0.79895 48.4348L0.827596 30.2482L14.3599 28.3422L24.3859 33.8074V35.0589L27.537 36.7754L27.5312 41.3106L24.3745 41.7526V41.8846L27.5255 43.6011L27.5083 51.552L23.4463 52.1204L14.8927 47.4589L14.887 53.3259L10.825 53.9L0.79895 48.4348Z" fill="#000022"/>
<path d="M23.6068 44.5024L14.1994 39.3759L14.188 46.2017L23.5896 51.3282L23.6068 44.5024Z" fill="#000022"/>
<path d="M23.6182 37.6709L14.2109 32.5502L14.2052 35.9602L23.6125 41.0867L23.6182 37.6709Z" fill="#000022"/>
<path d="M14.2052 35.9602L4.73486 37.292L14.1422 42.4243L18.6281 41.787L23.6067 44.5024L26.7578 44.0546L21.7849 41.345L23.6125 41.0867L14.2052 35.9602Z" fill="#2F4235"/>
<path d="M23.624 34.2609L14.2167 29.1345L1.5896 30.9141L10.9969 36.0406L18.6396 34.9613L23.6182 37.6709L26.775 37.2289L21.7964 34.5193L23.624 34.2609Z" fill="#2F4235"/>
<path d="M26.7463 50.8861L26.7578 44.0546L23.6068 44.5024L23.5896 51.3281L26.7463 50.8861Z" fill="#8BE368"/>
<path d="M26.7635 40.6446L26.775 37.2289L23.6182 37.6709L23.6125 41.0867L26.7635 40.6446Z" fill="#8BE368"/>
<path d="M14.1422 42.4243L14.1479 39.0085L23.6182 37.6709L23.6239 34.2609L10.9968 36.0406L10.9682 53.1078L14.125 52.66L14.1364 45.8343L23.6067 44.5024L23.6125 41.0867L14.1422 42.4243Z" fill="#8BE368"/>
<path d="M10.9969 36.0406L1.58956 30.9141L1.56091 47.9813L10.9682 53.1078L10.9969 36.0406Z" fill="#000022"/>
<path d="M67.6526 19.6163L67.687 1.42963L71.749 0.85556L81.775 6.32074L81.7578 13.4852L91.2167 18.6404L91.211 23.1756L77.6787 25.0815L67.6526 19.6163Z" fill="#000022"/>
<path d="M90.4547 19.0939L81.0474 13.9674L71.5771 15.305L80.9844 20.4315L90.4547 19.0939Z" fill="#543731"/>
<path d="M81.0074 6.77426L71.6058 1.64778L68.449 2.08982L77.8506 7.2163L81.0074 6.77426Z" fill="#543731"/>
<path d="M90.4547 19.0939L80.9844 20.4315L81.0073 6.77426L77.8505 7.2163L77.8219 24.2893L90.4432 22.5096L90.4547 19.0939Z" fill="#FAC23E"/>
<path d="M77.8505 7.21629L68.449 2.08981L68.4146 19.1628L77.8219 24.2893L77.8505 7.21629Z" fill="#000022"/>
<path d="M51.1068 21.9872L51.1412 3.80056L64.6734 1.89464L74.6995 7.35982L74.6938 11.895L68.1854 12.8078L71.5313 14.6333L71.5255 19.1628L71.3307 19.1915L74.6766 21.017L74.6651 25.5465L61.1385 27.4524L51.1068 21.9872Z" fill="#000022"/>
<path d="M64.5073 16.3441L55.037 17.6759L64.4443 22.8024L73.9089 21.4706L64.5073 16.3441Z" fill="#543731"/>
<path d="M61.362 9.96037L55.0484 10.8502L64.4557 15.9767L70.7693 15.0869L61.362 9.96037Z" fill="#543731"/>
<path d="M64.5303 2.68686L51.9032 4.46649L61.3105 9.59297L73.9375 7.81334L64.5303 2.68686Z" fill="#543731"/>
<path d="M61.276 26.6602L73.9031 24.8806L73.9088 21.4706L64.4443 22.8024L64.45 19.3867L70.7635 18.5026L70.7693 15.0869L64.4557 15.9767L64.4614 12.5609L73.9318 11.2291L73.9375 7.81334L61.3104 9.59297L61.276 26.6602Z" fill="#FAC23E"/>
<path d="M61.3104 9.59297L51.9031 4.46649L51.8745 21.5337L61.276 26.6602L61.3104 9.59297Z" fill="#000022"/>
<path d="M30.7339 24.7715L30.7396 20.242L33.8964 19.7943L33.9021 16.3843L37.0589 15.9365V15.8044L33.9078 14.088V12.8365L30.7568 11.12L30.7682 6.58482L34.8245 6.01649L40.2271 8.95575V8.66871L43.3839 8.22093L43.3896 4.81094L47.4516 4.23686L57.4776 9.70205L57.4719 14.2372L54.3151 14.6793L54.3094 18.095L51.1526 18.537V18.6691L54.3036 20.3856V21.637L57.4547 23.3535L57.4432 27.8887L53.3812 28.4628L47.9844 25.5178V25.8106L44.8276 26.2526L44.8219 29.6683L40.7599 30.2367L30.7339 24.7715Z" fill="#000022"/>
<path d="M50.3849 21.2869L47.2281 19.5646L47.2339 18.3189L44.0771 16.5967L44.0828 15.3452L40.9318 13.6287V12.3772L31.5245 7.25075L31.5188 10.6665L34.6755 12.383L34.6698 13.6344L37.8266 15.3509L37.8209 16.6024L40.9719 18.3246V19.5704L44.1229 21.2926V22.5441L53.5302 27.6648V24.2548L50.3792 22.5383L50.3849 21.2869Z" fill="#000022"/>
<path d="M44.1458 8.88687L53.5531 14.0134L53.5589 10.5976L44.1516 5.47687L44.1458 8.88687Z" fill="#000022"/>
<path d="M50.3964 14.4611L40.9891 9.33464L40.9834 12.7446L50.3906 17.8711L50.3964 14.4611Z" fill="#000022"/>
<path d="M34.6584 20.4602L44.0656 25.5867L44.0714 22.1767L34.6641 17.0502L34.6584 20.4602Z" fill="#000022"/>
<path d="M31.4958 24.318L40.9031 29.4444L40.9089 26.0345L31.5016 20.908L31.4958 24.318Z" fill="#000022"/>
<path d="M53.536 20.8391L48.563 18.1295L50.3906 17.8711L45.412 15.1615L47.2396 14.9032L42.261 12.1935L44.0886 11.9352L34.6813 6.80872L31.5245 7.25075L40.9318 12.3772L42.9084 14.9032L44.0828 15.3452L47.2339 18.3189L50.3849 21.2869L53.5302 24.2548L56.687 23.807L51.7141 21.0974L53.536 20.8391Z" fill="#543731"/>
<path d="M44.1516 5.47686L53.5589 10.5976L56.7156 10.1556L47.3084 5.02908L44.1516 5.47686Z" fill="#543731"/>
<path d="M53.5531 14.0133L44.1458 8.88686L40.9891 9.33463L50.3964 14.4611L53.5531 14.0133Z" fill="#543731"/>
<path d="M34.6641 17.0502L44.0714 22.1767L47.2281 21.7289L37.8208 16.6024L34.6641 17.0502Z" fill="#543731"/>
<path d="M31.5016 20.908L40.9089 26.0345L44.0657 25.5867L34.6584 20.4602L31.5016 20.908Z" fill="#543731"/>
<path d="M56.6813 27.2228L56.687 23.8071L53.5302 24.2548V27.6648L56.6813 27.2228Z" fill="#FAC23E"/>
<path d="M53.5302 24.2548L53.5359 20.8391L50.3849 21.2869L50.3792 24.6969L53.5302 24.2548Z" fill="#FAC23E"/>
<path d="M53.5531 14.0133L56.7099 13.5713L56.7156 10.1556L53.5589 10.5976L53.5531 14.0133Z" fill="#FAC23E"/>
<path d="M50.3906 17.8711L53.5474 17.4291L53.5531 14.0134L50.3964 14.4611L50.3906 17.8711Z" fill="#FAC23E"/>
<path d="M47.2281 21.7289L50.3849 21.2869L50.3906 17.8711L47.2339 18.3189L47.2281 21.7289Z" fill="#FAC23E"/>
<path d="M44.0657 25.5867L47.2224 25.1446L47.2282 21.7289L44.0714 22.1767L44.0657 25.5867Z" fill="#FAC23E"/>
<path d="M40.9031 29.4444L44.0599 29.0024L44.0657 25.5867L40.9089 26.0344L40.9031 29.4444Z" fill="#FAC23E"/>
<path d="M44.0828 15.3452L44.0771 18.7609L47.2339 18.3189L47.2396 14.9032L44.0828 15.3452Z" fill="#FAC23E"/>
<path d="M40.9261 15.793L44.0828 15.3452L44.0886 11.9352L40.9318 12.3772L40.9261 15.793Z" fill="#FAC23E"/>
<path d="M16.6344 26.8554L16.6401 22.3202L19.7969 21.8782L19.8141 14.9146L16.6573 13.1982L16.6688 8.66297L27.0443 7.20482L37.0703 12.67L37.0589 17.2052L33.9021 17.6472L33.8906 24.605L37.0417 26.3215L37.036 30.8567L26.6604 32.3206L16.6344 26.8554Z" fill="#000022"/>
<path d="M26.8094 28.1126L17.4021 22.9861L17.3964 26.4019L26.8036 31.5283L26.8094 28.1126Z" fill="#000022"/>
<path d="M26.8724 21.6543L23.7156 22.0963L33.1229 27.2228L36.2797 26.7808L26.8724 21.6543Z" fill="#543731"/>
<path d="M29.9662 27.6706L20.5589 22.5383L17.4021 22.9861L26.8094 28.1126L29.9662 27.6706Z" fill="#543731"/>
<path d="M36.3027 13.1235L26.9011 7.99706L17.4308 9.32891L26.8323 14.4554L36.3027 13.1235Z" fill="#543731"/>
<path d="M20.5589 22.5383L29.9662 27.6706L29.9833 17.4291L26.8323 15.7069V14.4554L17.4307 9.3289L17.425 12.7446L20.5761 14.4611L20.5589 22.5383Z" fill="#000022"/>
<path d="M36.2797 26.7807L33.1229 27.2228L33.1401 16.9813L36.2969 16.5393L36.3026 13.1235L26.8323 14.4554L26.8266 17.8711L29.9833 17.4291L29.9662 27.6706L26.8094 28.1126L26.8036 31.5283L36.274 30.1907L36.2797 26.7807Z" fill="#FAC23E"/>
<path d="M0.965118 28.9852L0.999493 10.7985L11.375 9.34038L21.4011 14.8056L21.3953 16.0513L24.5521 17.7735L24.5349 25.7187L21.3781 26.1665L21.3724 29.5765L15.0589 30.4663L15.0531 33.8821L10.9912 34.4504L0.965118 28.9852Z" fill="#000022"/>
<path d="M11.2146 20.3741L20.6162 25.5006L20.6276 18.6691L11.2261 13.5426L11.2146 20.3741Z" fill="#000022"/>
<path d="M4.90106 21.2639L14.3026 26.3904L20.6162 25.5006L11.2146 20.3741L4.90106 21.2639Z" fill="#543731"/>
<path d="M20.6334 15.2591L11.2318 10.1326L4.91828 11.0224L3.66932 11.1946L1.76151 11.4644L11.1688 16.5909L13.0709 16.3211L14.3256 16.1489L15.6547 15.9595L20.6277 18.6691L23.7844 18.227L18.8115 15.5174L20.6334 15.2591Z" fill="#543731"/>
<path d="M20.6161 25.5006L23.7729 25.0528L23.7844 18.2271L20.6276 18.6691L20.6161 25.5006Z" fill="#FAC23E"/>
<path d="M14.3141 19.5589L20.6276 18.6691L20.6333 15.2591L14.3255 16.1489L13.0708 16.3211L11.1687 16.5909L11.1344 33.6582L14.2911 33.2161L14.2969 29.8004L20.6104 28.9106L20.6161 25.5006L14.3026 26.3904L14.3141 19.5589Z" fill="#FAC23E"/>
<path d="M11.1687 16.5909L1.76146 11.4644L1.73282 28.5317L11.1344 33.6582L11.1687 16.5909Z" fill="#000022"/>
</svg>
