<?xml version="1.0" encoding="UTF-8"?>
<svg width="64px" height="128px" viewBox="0 0 64 128" version="1.1" xmlns="http://www.w3.org/2000/svg" xmlns:xlink="http://www.w3.org/1999/xlink">
    <!-- Generator: Sketch 52.3 (67297) - http://www.bohemiancoding.com/sketch -->
    <title>boy</title>
    <desc>Created with Sketch.</desc>
    <g id="Page-1" stroke="none" stroke-width="1" fill="none" fill-rule="evenodd">
        <g id="homepage-bg" transform="translate(-400.000000, -452.000000)">
            <g id="boy" transform="translate(400.000000, 452.000000)">
                <polygon id="Path" fill="#5B6EE1" points="8 116 12 116 12 112 8 112"></polygon>
                <polygon id="Path" fill="#5B6EE1" points="12 112 16 112 16 104 12 104"></polygon>
                <polygon id="Path" fill="#5B6EE1" points="20 92 20 96 16 96 16 104 20 104 20 100 24 100 24 96 44 96 44 116 48 116 48 92"></polygon>
                <polygon id="Path" fill="#3F3F74" points="44 120 48 120 48 116 44 116"></polygon>
                <polygon id="Path" fill="#3F3F74" points="12 116 16 116 16 112 12 112"></polygon>
                <polygon id="Path" fill="#3F3F74" points="16 108 20 108 20 104 16 104"></polygon>
                <polygon id="Path" fill="#3F3F74" points="20 104 24 104 24 100 20 100"></polygon>
                <polygon id="Path" fill="#3F3F74" points="24 100 28 100 28 96 24 96"></polygon>
                <polygon id="Path" fill="#3F3F74" points="20 88 20 92 48 92 48 88"></polygon>
                <polygon id="Path" fill="#EEC39A" points="52 100 56 100 56 84 52 84"></polygon>
                <polygon id="Path" fill="#EEC39A" points="12 80 8 80 8 100 12 100 12 96 16 96 16 84 12 84"></polygon>
                <path d="M52,40 L48,40 L48,32 L52,32 L52,40 Z M28,32 L28,40 L24,40 L24,32 L28,32 Z M48,48 L44,48 L44,52 L28,52 L28,48 L24,48 L24,44 L28,44 L28,48 L44,48 L44,44 L48,44 L48,48 Z M20,28 L20,32 L16,32 L16,36 L12,36 L12,32 L8,32 L8,40 L12,40 L12,56 L16,56 L16,60 L56,60 L56,28 L20,28 Z" id="Shape" fill="#EEC39A" fill-rule="nonzero"></path>
                <polygon id="Path" fill="#D9A066" points="52 84 56 84 56 80 52 80"></polygon>
                <polygon id="Path" fill="#D9A066" points="12 84 16 84 16 80 12 80"></polygon>
                <polygon id="Path" fill="#D9A066" points="8 76 8 80 12 80 12 76"></polygon>
                <polygon id="Path" fill="#D9A066" points="28 48 28 52 44 52 44 48"></polygon>
                <polygon id="Path" fill="#D9A066" points="44 48 48 48 48 44 44 44"></polygon>
                <polygon id="Path" fill="#D9A066" points="24 44 24 48 28 48 28 44"></polygon>
                <polygon id="Path" fill="#D9A066" points="16 32 20 32 20 28 16 28"></polygon>
                <polygon id="Path" fill="#D9A066" points="24 24 24 28 56 28 56 24"></polygon>
                <polygon id="Path" fill="#8F563B" points="56 4 28 4 28 8 44 8 44 12 56 12 56 16 60 16 60 8 56 8"></polygon>
                <polygon id="Path" fill="#663931" points="44 120 44 124 56 124 56 120"></polygon>
                <polygon id="Path" fill="#663931" points="4 120 4 124 12 124 12 120"></polygon>
                <polygon id="Path" fill="#663931" points="48 64 40 64 40 80 44 80 44 84 52 84 52 80 48 80"></polygon>
                <polygon id="Path" fill="#663931" points="20 64 20 80 16 80 16 84 24 84 24 80 28 80 28 64"></polygon>
                <polygon id="Path" fill="#663931" points="56 12 44 12 44 8 28 8 28 4 16 4 16 8 12 8 12 16 8 16 8 28 12 28 12 36 16 36 16 28 24 28 24 24 56 24 56 32 60 32 60 16 56 16"></polygon>
                <polygon id="Path" fill="#94354D" points="44 84 44 88 52 88 52 84"></polygon>
                <polygon id="Path" fill="#94354D" points="16 84 16 88 24 88 24 84"></polygon>
                <polygon id="Path" fill="#94354D" points="40 80 40 84 44 84 44 80"></polygon>
                <polygon id="Path" fill="#94354D" points="24 84 28 84 28 80 24 80"></polygon>
                <polygon id="Path" fill="#94354D" points="48 80 52 80 52 72 48 72"></polygon>
                <polygon id="Path" fill="#D96262" points="52 72 56 72 56 68 52 68"></polygon>
                <polygon id="Path" fill="#D96262" points="12 72 16 72 16 68 12 68"></polygon>
                <polygon id="Path" fill="#D96262" points="48 64 48 68 52 68 52 64"></polygon>
                <polygon id="Path" fill="#D96262" points="16 68 20 68 20 64 16 64"></polygon>
                <polygon id="Path" fill="#AB3C3C" points="40 64 28 64 28 84 24 84 24 88 44 88 44 84 40 84"></polygon>
                <polygon id="Path" fill="#AB3C3C" points="52 80 56 80 56 72 52 72"></polygon>
                <polygon id="Path" fill="#AB3C3C" points="48 68 48 72 52 72 52 68"></polygon>
                <polygon id="Path" fill="#AB3C3C" points="16 72 12 72 12 80 20 80 20 68 16 68"></polygon>
                <polygon id="Path" fill="#45283C" points="44 124 44 96 28 96 28 100 40 100 40 128 60 128 60 120 56 120 56 124"></polygon>
                <polygon id="Path" fill="#45283C" points="8 116 8 112 4 112 4 120 12 120 12 124 4 124 4 120 0 120 0 128 16 128 16 116"></polygon>
                <polygon id="Path" fill="#45283C" points="16 116 20 116 20 108 16 108"></polygon>
                <polygon id="Path" fill="#45283C" points="12 104 16 104 16 96 12 96 12 100 8 100 8 112 12 112"></polygon>
                <polygon id="Path" fill="#45283C" points="20 108 24 108 24 104 20 104"></polygon>
                <polygon id="Path" fill="#45283C" points="24 104 28 104 28 100 24 100"></polygon>
                <polygon id="Path" fill="#45283C" points="52 88 48 88 48 120 56 120 56 116 52 116 52 104 56 104 56 100 52 100"></polygon>
                <polygon id="Path" fill="#45283C" points="20 88 16 88 16 96 20 96"></polygon>
                <polygon id="Path" fill="#45283C" points="8 76 4 76 4 100 8 100"></polygon>
                <polygon id="Path" fill="#45283C" points="56 100 60 100 60 68 56 68"></polygon>
                <polygon id="Path" fill="#45283C" points="12 68 8 68 8 76 12 76"></polygon>
                <polygon id="Path" fill="#45283C" points="16 64 12 64 12 68 16 68"></polygon>
                <polygon id="Path" fill="#45283C" points="16 60 16 64 52 64 52 68 56 68 56 60"></polygon>
                <polygon id="Path" fill="#45283C" points="12 56 12 60 16 60 16 56"></polygon>
                <polygon id="Path" fill="#45283C" points="12 40 8 40 8 56 12 56"></polygon>
                <polygon id="Path" fill="#45283C" points="56 60 60 60 60 32 56 32"></polygon>
                <polygon id="eye-2" fill="#45283C" points="48 40 52 40 52 32 48 32"></polygon>
                <polygon id="eye-1" fill="#45283C" points="24 40 28 40 28 32 24 32"></polygon>
                <polygon id="Path" fill="#45283C" points="8 32 12 32 12 28 8 28 8 16 4 16 4 40 8 40"></polygon>
                <polygon id="Path" fill="#45283C" points="12 8 8 8 8 16 12 16"></polygon>
                <polygon id="Path" fill="#45283C" points="60 32 64 32 64 8 60 8"></polygon>
                <polygon id="Path" fill="#45283C" points="60 8 60 4 56 4 56 8"></polygon>
                <polygon id="Path" fill="#45283C" points="16 4 12 4 12 8 16 8"></polygon>
                <polygon id="Path" fill="#45283C" points="56 4 56 0 16 0 16 4"></polygon>
            </g>
        </g>
    </g>
</svg>