<svg width="18" height="18" viewBox="0 0 18 18" fill="none" xmlns="http://www.w3.org/2000/svg">
<path d="M3.14426 0.692261C2.87743 0.692261 2.63585 0.796828 2.45195 0.980722L0.980797 2.45188C0.613009 2.81966 0.613009 3.46149 0.980797 3.92303L6.05772 8.99995L0.980797 14.0769C0.613009 14.5384 0.613009 15.1802 0.980797 15.548L2.45195 17.0192C2.91349 17.387 3.55532 17.387 3.9231 17.0192L9.00003 11.9423L14.077 17.0192C14.5385 17.387 15.1803 17.387 15.5481 17.0192L17.0193 15.548C17.387 15.0865 17.387 14.4447 17.0193 14.0769L11.9423 8.99995L17.0193 3.92303C17.387 3.46149 17.387 2.81966 17.0193 2.45188L15.5481 0.980722C15.0866 0.612934 14.4447 0.612934 14.077 0.980722L9.00003 6.05765L3.9231 0.980722C3.69234 0.796828 3.41109 0.692261 3.14426 0.692261Z" fill="#999999"/>
</svg>
