<svg width="20" height="21" viewBox="0 0 20 21" fill="none" xmlns="http://www.w3.org/2000/svg">
<path d="M1.21213 6.98489V5.85675V4.76501H0V5.85675V6.98489V8.17289V9.32202H1.21213V8.17289V6.98489Z" fill="#FAC23E"/>
<path d="M18.6364 4.76501V5.85675V6.98489V8.17289V9.32202H20V8.17289V6.98489V5.85675V4.76501H18.6364Z" fill="#FAC23E"/>
<path d="M18.6364 3.48315V4.76481H16.2121V9.32232H14.8485V10.4619H17.2728V11.7435H13.6364V12.7403H12.4243V14.0219H11.0607V18.7216H13.6364V21H6.06061V18.7216H8.78788V14.0219H7.42428V12.7403H6.06061V11.7435H2.42423V10.4619H5.00002V9.32232H3.7879V4.76481H1.2121V3.48315H3.7879V1.20472H2.42423V0.0651836H17.2728V1.20472H16.2121V3.48315H18.6364Z" fill="#FAC23E"/>
</svg>
