<svg width="24" height="24" viewBox="0 0 24 24" fill="none" xmlns="http://www.w3.org/2000/svg">
<path d="M10.1538 0C8.58534 0 7.38462 1.20072 7.38462 2.76923V10.1538H4.32692C3.03606 10.1538 2.84856 10.345 3.86538 11.4519L9.98077 17.5385C12.0108 19.5685 11.9892 19.5685 14.0192 17.5385L20.1346 11.5385C21.2416 10.3377 20.8738 10.1538 19.6731 10.1538H16.6154V2.76923C16.6154 1.20072 15.4147 0 13.8462 0H10.1538ZM0 17.5385V21.2308C0 22.7993 1.20072 24 2.76923 24H21.2308C22.7993 24 24 22.7993 24 21.2308V17.5385H22.1538V21.2308C22.1538 21.7861 21.7861 22.1538 21.2308 22.1538H2.76923C2.21394 22.1538 1.84615 21.7861 1.84615 21.2308V17.5385H0Z" fill="black"/>
</svg>
