<svg width="24" height="24" viewBox="0 0 24 24" fill="none" xmlns="http://www.w3.org/2000/svg">
<path d="M9.23077 0.17308C4.22597 0.17308 0.17308 4.22597 0.17308 9.23077C0.17308 14.2356 4.22597 18.2885 9.23077 18.2885C11.3438 18.2885 13.2873 17.5421 14.8269 16.3269L15.6346 17.1346C15.2957 17.7728 15.4147 18.5877 15.9519 19.125L20.1923 23.3942C20.8522 24.0541 21.9267 24.0541 22.5865 23.3942L23.3942 22.5865C24.0541 21.9267 24.0541 20.8522 23.3942 20.1923L19.125 15.9519C18.5841 15.4111 17.7728 15.3173 17.1346 15.6635L16.3269 14.8558C17.5493 13.3125 18.2885 11.3546 18.2885 9.23077C18.2885 4.22597 14.2356 0.17308 9.23077 0.17308ZM9.23077 1.84616C13.3089 1.84616 16.6154 5.15265 16.6154 9.23077C16.6154 13.3089 13.3089 16.6154 9.23077 16.6154C5.15265 16.6154 1.84616 13.3089 1.84616 9.23077C1.84616 5.15265 5.15265 1.84616 9.23077 1.84616ZM4.5577 6.89423C4.08173 7.66587 3.8077 8.57452 3.8077 9.54808C3.8077 12.3426 6.0613 14.5962 8.85577 14.5962C9.9339 14.5962 10.9471 14.2464 11.7692 13.6731C11.5493 13.6983 11.3041 13.7019 11.0769 13.7019C7.46395 13.7019 4.5577 10.7957 4.5577 7.1827C4.5577 7.08534 4.55409 6.99159 4.5577 6.89423Z" fill="#999999"/>
</svg>
