<svg width="24" height="24" viewBox="0 0 24 24" fill="none" xmlns="http://www.w3.org/2000/svg">
<path d="M12 0C5.37439 0 0 5.37439 0 12C0 17.078 3.15732 21.4098 7.61341 23.1622C7.59512 22.7524 7.59512 20.6268 9.07317 14.2866C9.27073 12.172 8.99634 11.422 8.99634 10.5439C8.99634 8.55 10.0317 8.12927 10.639 8.12927C11.5024 8.12927 12.6915 8.45854 12.6915 9.84878C12.6915 11.4402 11.3927 11.861 11.3927 11.861C11.3927 11.861 11.3012 12.2671 11.1915 13.3976C11.0854 14.5317 11.539 15.761 13.3866 15.761C16.35 15.761 16.8073 11.6451 16.8073 10.511C16.8073 8.94878 15.6622 5.77317 12.1024 5.77317C7.35732 5.77317 6.54146 10.0244 6.54146 11.1585C6.54146 11.6451 6.67317 12.5012 6.76463 12.8671C7.66098 13.0134 7.56951 14.239 7.18537 14.5866C6.76098 14.9707 4.56951 15.428 4.56951 10.6207C4.56951 6.0439 8.64878 3.68415 12.2305 3.68415C15.6402 3.68415 19.35 6.03659 19.35 10.5659C19.35 14.6122 16.4451 17.7951 13.3902 17.7951C11.5573 17.7951 10.5841 16.2841 10.5841 16.2841C10.5841 17.7 7.98659 22.5585 7.65366 23.1768C9.00366 23.7 10.4671 24 12 24C18.6293 24 24 18.6293 24 12C24 5.37073 18.6256 0 12 0Z" fill="#BD081C"/>
</svg>
