<svg width="24" height="20" viewBox="0 0 24 20" fill="none" xmlns="http://www.w3.org/2000/svg">
<path d="M23.6214 2.27164C22.7524 2.65745 21.8185 2.91707 20.8377 3.03606C21.8365 2.43389 22.6082 1.48558 22.9688 0.353366C22.0313 0.908654 20.9928 1.3125 19.8894 1.52885C19.006 0.58774 17.7476 0 16.3522 0C13.6767 0 11.506 2.17067 11.506 4.84615C11.506 5.22476 11.5493 5.59615 11.6322 5.94952C7.60457 5.7476 4.03486 3.8149 1.64423 0.883414C1.22596 1.60096 0.987981 2.43389 0.987981 3.32452C0.987981 5.00481 1.84255 6.48678 3.14423 7.35577C2.34736 7.33053 1.60096 7.11418 0.948318 6.75C0.948318 6.77163 0.948318 6.78966 0.948318 6.8113C0.948318 9.15865 2.61779 11.1166 4.83534 11.5637C4.42788 11.6755 4.0024 11.7332 3.55889 11.7332C3.24519 11.7332 2.94231 11.7043 2.64664 11.6466C3.26322 13.5685 5.05168 14.9748 7.17188 15.0108C5.51683 16.3125 3.42548 17.0841 1.15385 17.0841C0.760818 17.0841 0.378606 17.0625 0 17.0192C2.14183 18.393 4.69111 19.1935 7.42789 19.1935C16.3413 19.1935 21.2163 11.8089 21.2163 5.40865C21.2163 5.19591 21.2127 4.98678 21.2019 4.77764C22.1502 4.09976 22.9724 3.24519 23.6214 2.27164Z" fill="#1DA1F2"/>
</svg>
