<svg width="10" height="14" viewBox="0 0 10 14" fill="none" xmlns="http://www.w3.org/2000/svg">
<path d="M6.21641 13.3269L6.83179 5.15379H8.76929C8.97122 5.15379 9.12266 5.05523 9.2741 4.85812C9.32458 4.661 9.32458 4.46389 9.22362 4.31725C7.81016 2.29802 5.44237 0.377347 5.34141 0.32927C5.24526 0.281194 5.10103 0.235521 5.00006 0.233117C4.99766 0.233117 4.99285 0.230713 4.99045 0.230713C4.88949 0.230713 4.73804 0.27879 4.68756 0.32927C4.5866 0.377347 2.2116 2.24994 0.79814 4.31725C0.697179 4.51437 0.646698 4.71148 0.74766 4.85812C0.848621 5.05523 1.00006 5.15379 1.20199 5.15379H3.13949L3.75487 13.3269C3.95199 13.5721 4.44718 13.7692 4.99045 13.7692C5.48083 13.7692 6.01929 13.6225 6.21641 13.3269Z" fill="white"/>
</svg>
