<svg width="16" height="14" viewBox="0 0 16 14" fill="none" xmlns="http://www.w3.org/2000/svg">
<path d="M3.09085 0.67302L2.47547 8.8461H0.537966C0.336043 8.8461 0.184601 8.94465 0.0331586 9.14177C-0.0173221 9.33889 -0.0173226 9.536 0.0836393 9.68264C1.4971 11.7019 3.86489 13.6225 3.96585 13.6706C4.062 13.7187 4.20623 13.7644 4.3072 13.7668C4.3096 13.7668 4.31441 13.7692 4.31681 13.7692C4.41777 13.7692 4.56921 13.7211 4.6197 13.6706C4.72066 13.6225 7.09566 11.7499 8.50912 9.68264C8.61008 9.48552 8.66056 9.28841 8.5596 9.14177C8.45864 8.94466 8.3072 8.8461 8.10527 8.8461H6.16777L5.55239 0.673021C5.35527 0.427828 4.86008 0.230713 4.31681 0.230713C3.82643 0.230713 3.28797 0.377347 3.09085 0.67302Z" fill="white"/>
<path d="M12.9091 13.327L13.5245 5.1539L15.462 5.1539C15.664 5.1539 15.8154 5.05535 15.9668 4.85823C16.0173 4.66111 16.0173 4.464 15.9164 4.31736C14.5029 2.29813 12.1351 0.377459 12.0342 0.329383C11.938 0.281306 11.7938 0.235633 11.6928 0.233228C11.6904 0.233228 11.6856 0.230825 11.6832 0.230825C11.5822 0.230825 11.4308 0.278902 11.3803 0.329382C11.2793 0.377459 8.90434 2.25006 7.49088 4.31736C7.38992 4.51448 7.33944 4.71159 7.4404 4.85823C7.54136 5.05534 7.6928 5.1539 7.89473 5.1539L9.83223 5.1539L10.4476 13.327C10.6447 13.5722 11.1399 13.7693 11.6832 13.7693C12.1736 13.7693 12.712 13.6227 12.9091 13.327Z" fill="white"/>
</svg>
