<svg width="10" height="14" viewBox="0 0 10 14" fill="none" xmlns="http://www.w3.org/2000/svg">
<path d="M3.78336 0.67302L3.16797 8.8461H1.23047C1.02855 8.8461 0.877106 8.94465 0.725663 9.14177C0.675183 9.33889 0.675182 9.536 0.776144 9.68264C2.18961 11.7019 4.55739 13.6225 4.65835 13.6706C4.75451 13.7187 4.89874 13.7644 4.9997 13.7668C5.00211 13.7668 5.00691 13.7692 5.00932 13.7692C5.11028 13.7692 5.26172 13.7211 5.3122 13.6706C5.41316 13.6225 7.78816 11.7499 9.20162 9.68264C9.30259 9.48552 9.35307 9.28841 9.25211 9.14177C9.15114 8.94466 8.9997 8.8461 8.79778 8.8461H6.86028L6.24489 0.673021C6.04778 0.427828 5.55259 0.230713 5.00932 0.230713C4.51893 0.230713 3.98047 0.377347 3.78336 0.67302Z" fill="white"/>
</svg>
