<svg width="28" height="22" viewBox="0 0 23 22" fill="none" xmlns="http://www.w3.org/2000/svg">
<path d="M22.954 8.30744C22.8487 7.9723 22.5547 7.72459 22.2062 7.67359L15.3855 6.6791L12.3327 0.475387C12.0205 -0.158462 10.9824 -0.158462 10.6666 0.475387L7.61741 6.6791L0.796716 7.67359C0.44824 7.72459 0.154214 7.96866 0.0453144 8.30744C-0.0635839 8.64622 0.0271649 9.01779 0.281262 9.26185L5.21801 14.0922L4.05279 20.9079C3.99471 21.2576 4.13628 21.6146 4.42304 21.8223C4.70981 22.0299 5.08733 22.0591 5.3995 21.8915L11.5015 18.6749L17.5998 21.8915C17.7377 21.9643 17.8866 21.9971 18.0354 21.9971C18.2278 21.9971 18.4165 21.9388 18.5799 21.8223C18.8666 21.611 19.0082 21.2576 18.9501 20.9079L17.7849 14.0922L22.7217 9.26185C22.9758 9.01414 23.0629 8.64622 22.954 8.30744Z" fill="#E5E5E5"/>
</svg>
