<svg width="20" height="15" viewBox="0 0 16 15" fill="none" xmlns="http://www.w3.org/2000/svg">
<path d="M15.968 5.66416C15.8948 5.43566 15.6902 5.26676 15.4478 5.23199L10.703 4.55393L8.57929 0.324127C8.36212 -0.108042 7.63992 -0.108042 7.42023 0.324127L5.29907 4.55393L0.554237 5.23199C0.311819 5.26676 0.107279 5.43317 0.0315231 5.66416C-0.0442323 5.89515 0.0188973 6.14849 0.19566 6.3149L3.62992 9.60834L2.81933 14.2554C2.77893 14.4938 2.87741 14.7373 3.0769 14.8788C3.27639 15.0204 3.53901 15.0403 3.75618 14.926L8.00102 12.7329L12.2433 14.926C12.3393 14.9757 12.4428 14.998 12.5464 14.998C12.6802 14.998 12.8115 14.9583 12.9251 14.8788C13.1246 14.7348 13.2231 14.4938 13.1827 14.2554L12.3721 9.60834L15.8064 6.3149C15.9831 6.14601 16.0437 5.89515 15.968 5.66416Z" fill="#FAC23E"/>
</svg>
